<?xml version="1.0" encoding="UTF-8"?>
<svg xmlns="http://www.w3.org/2000/svg" xmlns:xlink="http://www.w3.org/1999/xlink" width="64pt" height="64pt" viewBox="0 0 64 64" version="1.1">
<defs>
<linearGradient id="linear0" gradientUnits="userSpaceOnUse" x1="86" y1="14.33244" x2="86" y2="160.892563" gradientTransform="matrix(0.372093,0,0,0.372093,0,0)">
<stop offset="0" style="stop-color:rgb(100%,32.549021%,0%);stop-opacity:1;"/>
<stop offset="1" style="stop-color:rgb(27.058825%,7.843138%,35.294119%);stop-opacity:1;"/>
</linearGradient>
<linearGradient id="linear1" gradientUnits="userSpaceOnUse" x1="86" y1="14.33244" x2="86" y2="160.892563" gradientTransform="matrix(0.372093,0,0,0.372093,0,0)">
<stop offset="0" style="stop-color:rgb(100%,32.549021%,0%);stop-opacity:1;"/>
<stop offset="1" style="stop-color:rgb(27.058825%,7.843138%,35.294119%);stop-opacity:1;"/>
</linearGradient>
<linearGradient id="linear2" gradientUnits="userSpaceOnUse" x1="86" y1="57.78125" x2="86" y2="70.778" gradientTransform="matrix(0.372093,0,0,0.372093,0,0)">
<stop offset="0" style="stop-color:rgb(100%,62.352943%,43.921569%);stop-opacity:1;"/>
<stop offset="1" style="stop-color:rgb(54.509807%,15.686275%,71.372551%);stop-opacity:1;"/>
</linearGradient>
<linearGradient id="linear3" gradientUnits="userSpaceOnUse" x1="86" y1="78.832443" x2="86" y2="92.71875" gradientTransform="matrix(0.372093,0,0,0.372093,0,0)">
<stop offset="0" style="stop-color:rgb(100%,62.352943%,43.921569%);stop-opacity:1;"/>
<stop offset="1" style="stop-color:rgb(54.509807%,15.686275%,71.372551%);stop-opacity:1;"/>
</linearGradient>
<linearGradient id="linear4" gradientUnits="userSpaceOnUse" x1="86" y1="99.4375" x2="86" y2="111.093193" gradientTransform="matrix(0.372093,0,0,0.372093,0,0)">
<stop offset="0" style="stop-color:rgb(100%,62.352943%,43.921569%);stop-opacity:1;"/>
<stop offset="1" style="stop-color:rgb(54.509807%,15.686275%,71.372551%);stop-opacity:1;"/>
</linearGradient>
</defs>
<g id="surface14793886">
<path style=" stroke:none;fill-rule:nonzero;fill:url(#linear0);" d="M 32 58 C 17.664062 58 6 46.335938 6 32 C 6 17.664062 17.664062 6 32 6 C 46.335938 6 58 17.664062 58 32 C 58 46.335938 46.335938 58 32 58 Z M 32 8 C 18.765625 8 8 18.765625 8 32 C 8 45.234375 18.765625 56 32 56 C 45.234375 56 56 45.234375 56 32 C 56 18.765625 45.234375 8 32 8 Z M 32 8 "/>
<path style=" stroke:none;fill-rule:nonzero;fill:url(#linear1);" d="M 32 52 C 20.972656 52 12 43.027344 12 32 C 12 20.972656 20.972656 12 32 12 C 43.027344 12 52 20.972656 52 32 C 52 43.027344 43.027344 52 32 52 Z M 32 14 C 22.074219 14 14 22.074219 14 32 C 14 41.925781 22.074219 50 32 50 C 41.925781 50 50 41.925781 50 32 C 50 22.074219 41.925781 14 32 14 Z M 32 14 "/>
<path style=" stroke:none;fill-rule:nonzero;fill:url(#linear2);" d="M 42 25 C 42 25.550781 41.550781 26 41 26 L 23 26 C 22.449219 26 22 25.550781 22 25 L 22 23 C 22 22.449219 22.449219 22 23 22 L 41 22 C 41.550781 22 42 22.449219 42 23 Z M 42 25 "/>
<path style=" stroke:none;fill-rule:nonzero;fill:url(#linear3);" d="M 42 33 C 42 33.550781 41.550781 34 41 34 L 23 34 C 22.449219 34 22 33.550781 22 33 L 22 31 C 22 30.449219 22.449219 30 23 30 L 41 30 C 41.550781 30 42 30.449219 42 31 Z M 42 33 "/>
<path style=" stroke:none;fill-rule:nonzero;fill:url(#linear4);" d="M 42 41 C 42 41.550781 41.550781 42 41 42 L 23 42 C 22.449219 42 22 41.550781 22 41 L 22 39 C 22 38.449219 22.449219 38 23 38 L 41 38 C 41.550781 38 42 38.449219 42 39 Z M 42 41 "/>
</g>
</svg>
