<svg id="icons" enable-background="new 0 0 64 64" height="512" viewBox="0 0 64 64" width="512" xmlns="http://www.w3.org/2000/svg"><path d="m1 58c0 .55.45 1 1 1h60c.55 0 1-.45 1-1v-49h-62z" fill="#e6e9ed"/><path d="m63 7v2h-62v-2c0-1.109.89-2 2-2h58c1.11 0 2 .891 2 2z" fill="#ccd1d9"/><g fill="#e6e9ed"><path d="m4.006 5.998h-.01c-.553 0-.995.447-.995 1 0 .552.452 1 1.005 1s1-.448 1-1c0-.553-.447-1-1-1z"/><path d="m7.005 5.998h-.01c-.552 0-.995.447-.995 1 0 .552.453 1 1.005 1 .553 0 1-.448 1-1 0-.553-.447-1-1-1z"/><path d="m10.008 5.998h-.01c-.553 0-.995.447-.995 1 0 .552.452 1 1.005 1s1-.448 1-1c0-.553-.447-1-1-1z"/></g><path d="m19.999 26.998h-.994c-.553 0-1 .447-1 1 0 .519.399.932.905.98-.244 1.48-1.022 2.785-2.141 3.682-1.029.84-2.339 1.34-3.769 1.34s-2.74-.5-3.77-1.34c-1.118-.896-1.896-2.2-2.141-3.68.511-.045.915-.461.915-.982 0-.553-.447-1-1-1h-1.001c-.553 0-1 .447-1 1v27.006c0 .553.447 1 1 1h13.996c.553 0 1-.447 1-1v-27.006c0-.553-.447-1-1-1z" fill="#ccd1d9"/><path d="m38.999 26.998h-.994c-.553 0-1 .447-1 1 0 .519.399.932.905.98-.244 1.48-1.022 2.785-2.141 3.682-1.029.84-2.339 1.34-3.769 1.34s-2.74-.5-3.77-1.34c-1.118-.896-1.896-2.2-2.141-3.68.511-.045.915-.461.915-.982 0-.553-.447-1-1-1h-1.002c-.553 0-1 .447-1 1v27.006c0 .553.447 1 1 1h13.996c.553 0 1-.447 1-1v-27.006c.001-.553-.446-1-.999-1z" fill="#ccd1d9"/><path d="m57.999 26.998h-.994c-.553 0-1 .447-1 1 0 .519.399.932.905.98-.244 1.48-1.022 2.785-2.141 3.682-1.029.84-2.339 1.34-3.769 1.34s-2.74-.5-3.77-1.34c-1.118-.896-1.896-2.2-2.141-3.68.511-.045.915-.461.915-.982 0-.553-.447-1-1-1h-1.002c-.553 0-1 .447-1 1v27.006c0 .553.447 1 1 1h13.996c.553 0 1-.447 1-1v-27.006c.001-.553-.446-1-.999-1z" fill="#ccd1d9"/><path d="m19.999 25.998h-.994c-.553 0-1 .447-1 1 0 .518.399.931.905.98-.244 1.479-1.022 2.785-2.141 3.682-1.029.84-2.339 1.34-3.769 1.34s-2.74-.5-3.77-1.34c-1.118-.896-1.896-2.201-2.141-3.68.511-.045.915-.461.915-.982 0-.553-.447-1-1-1h-1.001c-.553 0-1 .447-1 1v27.005c0 .553.447 1 1 1h13.996c.553 0 1-.447 1-1v-27.005c0-.553-.447-1-1-1z" fill="#fff"/><path d="m38.999 25.998h-.994c-.553 0-1 .447-1 1 0 .518.399.931.905.98-.244 1.479-1.022 2.785-2.141 3.682-1.029.84-2.339 1.34-3.769 1.34s-2.74-.5-3.77-1.34c-1.118-.896-1.896-2.201-2.141-3.68.511-.045.915-.461.915-.982 0-.553-.447-1-1-1h-1.002c-.553 0-1 .447-1 1v27.005c0 .553.447 1 1 1h13.996c.553 0 1-.447 1-1v-27.005c.001-.553-.446-1-.999-1z" fill="#fff"/><path d="m57.999 25.998h-.994c-.553 0-1 .447-1 1 0 .518.399.931.905.98-.244 1.479-1.022 2.785-2.141 3.682-1.029.84-2.339 1.34-3.769 1.34s-2.74-.5-3.77-1.34c-1.118-.896-1.896-2.201-2.141-3.68.511-.045.915-.461.915-.982 0-.553-.447-1-1-1h-1.002c-.553 0-1 .447-1 1v27.005c0 .553.447 1 1 1h13.996c.553 0 1-.447 1-1v-27.005c.001-.553-.446-1-.999-1z" fill="#fff"/><path d="m51 29c-1.74 0-3.22 1.109-3.77 2.66-1.36-1.09-2.23-2.781-2.23-4.66 0-3.311 2.69-6 6-6 3.32 0 6 2.689 6 6 0 1.879-.87 3.57-2.23 4.66-.55-1.551-2.03-2.66-3.77-2.66 1.11 0 2-.9 2-2 0-1.111-.89-2-2-2-1.1 0-2 .889-2 2 0 1.1.9 2 2 2z" fill="#656d78"/><path d="m51 29c1.74 0 3.22 1.109 3.77 2.66-1.03.84-2.34 1.34-3.77 1.34s-2.74-.5-3.77-1.34c.55-1.551 2.03-2.66 3.77-2.66z" fill="#a0d468"/><path d="m32 29c1.74 0 3.22 1.109 3.77 2.66-1.03.84-2.34 1.34-3.77 1.34s-2.74-.5-3.77-1.34c.55-1.551 2.03-2.66 3.77-2.66z" fill="#48cfad"/><path d="m30 27c0 1.1.9 2 2 2-1.74 0-3.22 1.109-3.77 2.66-1.36-1.09-2.23-2.781-2.23-4.66 0-3.311 2.69-6 6-6 3.32 0 6 2.689 6 6 0 1.879-.87 3.57-2.23 4.66-.55-1.551-2.03-2.66-3.77-2.66 1.11 0 2-.9 2-2 0-1.111-.89-2-2-2-1.1 0-2 .889-2 2z" fill="#656d78"/><path d="m11 27c0 1.1.9 2 2 2-1.74 0-3.22 1.109-3.77 2.66-1.36-1.09-2.23-2.781-2.23-4.66 0-3.311 2.69-6 6-6 3.32 0 6 2.689 6 6 0 1.879-.87 3.57-2.23 4.66-.55-1.551-2.03-2.66-3.77-2.66 1.11 0 2-.9 2-2 0-1.111-.89-2-2-2-1.1 0-2 .889-2 2z" fill="#656d78"/><path d="m13 29c1.74 0 3.22 1.109 3.77 2.66-1.03.84-2.34 1.34-3.77 1.34s-2.74-.5-3.77-1.34c.55-1.551 2.03-2.66 3.77-2.66z" fill="#5d9cec"/><path d="m15.5 27.5c0 1.374-1.112 2.5-2.5 2.5-1.375 0-2.5-1.126-2.5-2.5 0-1.389 1.125-2.5 2.5-2.5 1.388 0 2.5 1.111 2.5 2.5z" fill="#eac6bb"/><path d="m17 39h-8c-.553 0-1-.447-1-1s.447-1 1-1h8c.553 0 1 .447 1 1s-.447 1-1 1z" fill="#e6e9ed"/><path d="m17 42h-8c-.553 0-1-.447-1-1s.447-1 1-1h8c.553 0 1 .447 1 1s-.447 1-1 1z" fill="#e6e9ed"/><path d="m15.001 45h-4.002c-.553 0-1-.447-1-1s.447-1 1-1h4.002c.553 0 1 .447 1 1s-.447 1-1 1z" fill="#e6e9ed"/><path d="m10.023 50.005c-.553 0-1.005-.447-1.005-1s.442-1 .994-1h.011c.552 0 1 .447 1 1s-.448 1-1 1z" fill="#656d78"/><path d="m13.022 50.005c-.553 0-1.005-.447-1.005-1s.442-1 .994-1h.011c.552 0 1 .447 1 1s-.448 1-1 1z" fill="#656d78"/><path d="m16.025 50.005c-.553 0-1.005-.447-1.005-1s.442-1 .994-1h.011c.552 0 1 .447 1 1s-.448 1-1 1z" fill="#656d78"/><path d="m36 39h-8c-.553 0-1-.447-1-1s.447-1 1-1h8c.553 0 1 .447 1 1s-.447 1-1 1z" fill="#e6e9ed"/><path d="m36 42h-8c-.553 0-1-.447-1-1s.447-1 1-1h8c.553 0 1 .447 1 1s-.447 1-1 1z" fill="#e6e9ed"/><path d="m34.001 45h-4.002c-.553 0-1-.447-1-1s.447-1 1-1h4.002c.553 0 1 .447 1 1s-.447 1-1 1z" fill="#e6e9ed"/><path d="m29.023 50.005c-.553 0-1.005-.447-1.005-1s.442-1 .994-1h.011c.552 0 1 .447 1 1s-.448 1-1 1z" fill="#656d78"/><path d="m32.022 50.005c-.553 0-1.005-.447-1.005-1s.442-1 .994-1h.011c.552 0 1 .447 1 1s-.448 1-1 1z" fill="#656d78"/><path d="m35.025 50.005c-.553 0-1.005-.447-1.005-1s.442-1 .994-1h.011c.552 0 1 .447 1 1s-.448 1-1 1z" fill="#656d78"/><path d="m55 39h-8c-.553 0-1-.447-1-1s.447-1 1-1h8c.553 0 1 .447 1 1s-.447 1-1 1z" fill="#e6e9ed"/><path d="m55 42h-8c-.553 0-1-.447-1-1s.447-1 1-1h8c.553 0 1 .447 1 1s-.447 1-1 1z" fill="#e6e9ed"/><path d="m53.001 45h-4.002c-.553 0-1-.447-1-1s.447-1 1-1h4.002c.553 0 1 .447 1 1s-.447 1-1 1z" fill="#e6e9ed"/><path d="m48.023 50.005c-.553 0-1.005-.447-1.005-1s.442-1 .994-1h.011c.552 0 1 .447 1 1s-.448 1-1 1z" fill="#656d78"/><path d="m51.022 50.005c-.553 0-1.005-.447-1.005-1s.442-1 .994-1h.011c.552 0 1 .447 1 1s-.448 1-1 1z" fill="#656d78"/><path d="m54.025 50.005c-.553 0-1.005-.447-1.005-1s.442-1 .994-1h.011c.552 0 1 .447 1 1s-.448 1-1 1z" fill="#656d78"/><path d="m51 14.998h-38c-.553 0-1-.447-1-1 0-.552.447-1 1-1h38c.553 0 1 .448 1 1 0 .553-.447 1-1 1z" fill="#ccd1d9"/><path d="m44 17.998h-24c-.553 0-1-.447-1-1s.447-1 1-1h24c.553 0 1 .447 1 1s-.447 1-1 1z" fill="#ccd1d9"/><path d="m34.5 27.5c0 1.374-1.112 2.5-2.5 2.5-1.375 0-2.5-1.126-2.5-2.5 0-1.389 1.125-2.5 2.5-2.5 1.388 0 2.5 1.111 2.5 2.5z" fill="#eac6bb"/><path d="m53.5 27.5c0 1.374-1.112 2.5-2.5 2.5-1.375 0-2.5-1.126-2.5-2.5 0-1.389 1.125-2.5 2.5-2.5 1.388 0 2.5 1.111 2.5 2.5z" fill="#eac6bb"/></svg>